<svg
              class="fill-current"
              width="25"
              height="24"
              viewBox="0 0 25 24"
              fill="none"
              xmlns="http://www.w3.org/2000/svg"
              >
<path 
                fill-rule="evenodd"
                clip-rule="evenodd"
                d="M19.9551 4.93359C20.3691 4.93384 20.7051 5.26953 20.7051 5.68359V17.251L20.6992 17.4951C20.5717 20.0044 18.496 22.0007 15.9551 22.001H8.12305C7.70914 22.001 7.37355 21.6648 7.37305 21.251C7.37305 20.8368 7.70883 20.501 8.12305 20.501H15.9551C17.6935 20.5007 19.1138 19.1347 19.2012 17.418L19.2051 17.251V5.68359C19.2051 5.26938 19.5409 4.93359 19.9551 4.93359ZM15.3193 2.00098C16.5617 2.00124 17.5692 3.00863 17.5693 4.25098V16.7373C17.5692 17.9797 16.5617 18.987 15.3193 18.9873H6.54785C5.30542 18.9872 4.29801 17.9797 4.29785 16.7373V8.62207C4.29786 8.00971 4.54768 7.42327 4.98926 6.99902L9.53906 2.62891C9.95799 2.22654 10.5168 2.00111 11.0977 2.00098H15.3193ZM11.248 6.48145C11.2489 7.72461 10.2412 8.73322 8.99805 8.7334H5.79785V16.7373C5.79801 17.1513 6.13384 17.4872 6.54785 17.4873H15.3193C15.7332 17.487 16.0692 17.1512 16.0693 16.7373V4.25098C16.0692 3.83705 15.7332 3.50124 15.3193 3.50098H11.2461L11.248 6.48145ZM10.9326 14.3486C11.3467 14.3488 11.6826 14.6845 11.6826 15.0986C11.6823 15.5124 11.3465 15.8485 10.9326 15.8486H8.31641C7.9029 15.8481 7.56677 15.5122 7.56641 15.0986C7.56641 14.6848 7.90268 14.3492 8.31641 14.3486H10.9326ZM13.5479 11.8369C13.9621 11.8369 14.2979 12.1727 14.2979 12.5869C14.2977 13.001 13.962 13.3369 13.5479 13.3369H8.31641C7.90275 13.3363 7.56652 13.0007 7.56641 12.5869C7.56641 12.1731 7.90268 11.8375 8.31641 11.8369H13.5479ZM6.91016 7.2334H8.99805C9.41232 7.23322 9.74833 6.89672 9.74805 6.48242L9.74609 4.50879L6.91016 7.2334Z" fill="currentColor"/>
</svg>
